<svg xmlns="http://www.w3.org/2000/svg" width="512" height="512"><path fill="#ffef4a" d="M106.904 512a15.002 15.002 0 0 1-14.327-10.548l-19.452-62.577-62.577-19.452a14.999 14.999 0 0 1-4.209-26.572l53.504-37.837-.838-65.526a15.002 15.002 0 0 1 8.189-13.557 14.996 14.996 0 0 1 15.78 1.344l52.521 39.192 62.06-21.045a15 15 0 0 1 19.023 19.023l-21.045 62.06 39.192 52.521a14.998 14.998 0 0 1 1.344 15.78c-2.593 5.087-7.869 8.245-13.557 8.189l-65.526-.838-37.837 53.504A15.002 15.002 0 0 1 106.904 512z"/><path fill="#ffb454" d="M389.559 222.294a14.946 14.946 0 0 1-10.606-4.394c-5.858-5.857-5.858-15.355 0-21.213l70.711-70.71c5.858-5.857 15.356-5.859 21.213 0 5.858 5.857 5.858 15.355 0 21.213l-70.711 70.71a14.958 14.958 0 0 1-10.607 4.394z"/><path fill="#ffd845" d="M424.914 102.086a14.95 14.95 0 0 1-10.606-4.394c-5.858-5.857-5.858-15.355 0-21.213l72.086-72.086c5.857-5.857 15.355-5.857 21.213 0s5.858 15.355 0 21.213l-72.086 72.086a14.954 14.954 0 0 1-10.607 4.394z"/><path fill="#ffb454" d="M357.738 239.114c-5.857-5.857-15.355-5.857-21.213 0l-92.434 92.434c-5.858 5.857-5.858 15.355 0 21.213 2.929 2.929 6.768 4.394 10.606 4.394s7.678-1.465 10.606-4.394l92.434-92.434c5.86-5.857 5.86-15.355.001-21.213z"/><path fill="#ffd845" d="m195.104 210.83-35.859 35.858c-5.858 5.857-5.858 15.354 0 21.213 2.929 2.93 6.768 4.394 10.606 4.394s7.678-1.465 10.606-4.394l35.859-35.858c5.858-5.857 5.858-15.354 0-21.213-5.855-5.858-15.353-5.858-21.212 0zM371.881 118.906 258.744 232.043c-5.858 5.857-5.858 15.355 0 21.213 2.929 2.929 6.768 4.394 10.606 4.394s7.678-1.465 10.606-4.394l113.137-113.137c5.858-5.857 5.858-15.355 0-21.213-5.857-5.857-15.355-5.857-21.212 0zM258.743 189.616 386.022 62.337c5.858-5.857 5.858-15.355 0-21.213-5.857-5.857-15.355-5.857-21.213 0L237.53 168.403c-5.858 5.857-5.858 15.355 0 21.213 2.929 2.929 6.768 4.394 10.606 4.394s7.678-1.465 10.607-4.394z"/><path fill="#ffb454" d="M375 372h-15v-15c0-8.284-6.716-15-15-15s-15 6.716-15 15v15h-15c-8.284 0-15 6.716-15 15s6.716 15 15 15h15v15c0 8.284 6.716 15 15 15s15-6.716 15-15v-15h15c8.284 0 15-6.716 15-15s-6.716-15-15-15z"/><g fill="#ffd845"><path d="M75 30H60V15c0-8.284-6.716-15-15-15S30 6.716 30 15v15H15C6.716 30 0 36.716 0 45s6.716 15 15 15h15v15c0 8.284 6.716 15 15 15s15-6.716 15-15V60h15c8.284 0 15-6.716 15-15s-6.716-15-15-15zM160 137c0 8.284 6.716 15 15 15s15-6.716 15-15v-15h15c8.284 0 15-6.716 15-15s-6.716-15-15-15h-15V77c0-8.284-6.716-15-15-15s-15 6.716-15 15v15h-15c-8.284 0-15 6.716-15 15s6.716 15 15 15h15z"/><circle cx="270" cy="32" r="15"/><circle cx="70" cy="182" r="15"/></g><circle cx="420" cy="482" r="15" fill="#ffb454"/><circle cx="480" cy="282" r="15" fill="#ffb454"/><path fill="#ffd845" d="m73.126 438.875 19.452 62.577a14.999 14.999 0 0 0 26.572 4.209l37.837-53.504 65.526.838c5.688.056 10.964-3.103 13.557-8.189a14.998 14.998 0 0 0-1.344-15.78l-39.192-52.521 21.045-62.06a15 15 0 0 0-3.599-15.424z"/><g fill="#ffb454"><path d="M414.308 97.693c2.929 2.929 6.768 4.394 10.606 4.394s7.678-1.465 10.606-4.394l72.086-72.086c5.858-5.857 5.858-15.355 0-21.213zM269.351 257.65a14.95 14.95 0 0 0 10.606-4.394l113.137-113.137c5.858-5.857 5.858-15.355 0-21.213l-134.35 134.35a14.954 14.954 0 0 0 10.607 4.394z"/></g></svg>