<?xml version="1.0" encoding="UTF-8"?>
<svg xmlns="http://www.w3.org/2000/svg" xmlns:xlink="http://www.w3.org/1999/xlink" width="192px" height="512px" viewBox="0 0 192 192" version="1.1">
<g id="surface1">
<path style=" stroke:none;fill-rule:nonzero;fill:rgb(100%,93.72549%,29.019608%);fill-opacity:1;" d="M 40.089844 192 C 37.625 192 35.449219 190.398438 34.714844 188.042969 L 27.421875 164.578125 L 3.957031 157.285156 C 1.910156 156.648438 0.402344 154.90625 0.0703125 152.792969 C -0.265625 150.675781 0.628906 148.554688 2.378906 147.320312 L 22.441406 133.128906 L 22.125 108.558594 C 22.101562 106.417969 23.289062 104.445312 25.199219 103.472656 C 27.105469 102.5 29.398438 102.699219 31.117188 103.976562 L 50.8125 118.675781 L 74.082031 110.785156 C 76.109375 110.09375 78.351562 110.617188 79.867188 112.132812 C 81.382812 113.648438 81.90625 115.890625 81.214844 117.917969 L 73.324219 141.1875 L 88.023438 160.882812 C 89.300781 162.601562 89.496094 164.894531 88.527344 166.800781 C 87.554688 168.710938 85.574219 169.894531 83.441406 169.875 L 58.871094 169.558594 L 44.679688 189.621094 C 43.625 191.113281 41.914062 192 40.089844 192 Z M 40.089844 192 "/>
<path style=" stroke:none;fill-rule:nonzero;fill:rgb(100%,70.588235%,32.941176%);fill-opacity:1;" d="M 146.085938 83.359375 C 144.59375 83.363281 143.160156 82.769531 142.105469 81.710938 C 139.910156 79.515625 139.910156 75.953125 142.105469 73.757812 L 168.625 47.242188 C 170.820312 45.046875 174.382812 45.042969 176.578125 47.242188 C 178.777344 49.4375 178.777344 53 176.578125 55.195312 L 150.0625 81.710938 C 149.007812 82.769531 147.578125 83.363281 146.085938 83.359375 Z M 146.085938 83.359375 "/>
<path style=" stroke:none;fill-rule:nonzero;fill:rgb(100%,84.705882%,27.058824%);fill-opacity:1;" d="M 159.34375 38.28125 C 157.851562 38.285156 156.417969 37.691406 155.367188 36.632812 C 153.167969 34.4375 153.167969 30.875 155.367188 28.679688 L 182.398438 1.648438 C 184.59375 -0.550781 188.15625 -0.550781 190.351562 1.648438 C 192.550781 3.84375 192.550781 7.40625 190.351562 9.601562 L 163.320312 36.632812 C 162.265625 37.691406 160.835938 38.285156 159.34375 38.28125 Z M 159.34375 38.28125 "/>
<path style=" stroke:none;fill-rule:nonzero;fill:rgb(100%,70.588235%,32.941176%);fill-opacity:1;" d="M 134.152344 89.667969 C 131.957031 87.472656 128.394531 87.472656 126.195312 89.667969 L 91.535156 124.332031 C 89.335938 126.527344 89.335938 130.089844 91.535156 132.285156 C 92.632812 133.382812 94.070312 133.933594 95.511719 133.933594 C 96.949219 133.933594 98.390625 133.382812 99.488281 132.285156 L 134.152344 97.621094 C 136.347656 95.425781 136.347656 91.863281 134.152344 89.667969 Z M 134.152344 89.667969 "/>
<path style=" stroke:none;fill-rule:nonzero;fill:rgb(100%,84.705882%,27.058824%);fill-opacity:1;" d="M 73.164062 79.0625 L 59.71875 92.507812 C 57.519531 94.703125 57.519531 98.265625 59.71875 100.460938 C 60.816406 101.5625 62.253906 102.109375 63.695312 102.109375 C 65.132812 102.109375 66.574219 101.5625 67.671875 100.460938 L 81.117188 87.015625 C 83.316406 84.820312 83.316406 81.257812 81.117188 79.0625 C 78.921875 76.863281 75.359375 76.863281 73.164062 79.0625 Z M 139.457031 44.589844 L 97.027344 87.015625 C 94.832031 89.210938 94.832031 92.773438 97.027344 94.972656 C 98.128906 96.070312 99.566406 96.617188 101.007812 96.617188 C 102.445312 96.617188 103.886719 96.070312 104.984375 94.972656 L 147.410156 52.542969 C 149.605469 50.347656 149.605469 46.785156 147.410156 44.589844 C 145.214844 42.394531 141.652344 42.394531 139.457031 44.589844 Z M 97.027344 71.105469 L 144.757812 23.375 C 146.953125 21.179688 146.953125 17.617188 144.757812 15.421875 C 142.5625 13.226562 139 13.226562 136.804688 15.421875 L 89.074219 63.152344 C 86.878906 65.347656 86.878906 68.910156 89.074219 71.105469 C 90.171875 72.203125 91.613281 72.753906 93.050781 72.753906 C 94.492188 72.753906 95.929688 72.203125 97.027344 71.105469 Z M 97.027344 71.105469 "/>
<path style=" stroke:none;fill-rule:nonzero;fill:rgb(100%,70.588235%,32.941176%);fill-opacity:1;" d="M 140.625 139.5 L 135 139.5 L 135 133.875 C 135 130.769531 132.480469 128.25 129.375 128.25 C 126.269531 128.25 123.75 130.769531 123.75 133.875 L 123.75 139.5 L 118.125 139.5 C 115.019531 139.5 112.5 142.019531 112.5 145.125 C 112.5 148.230469 115.019531 150.75 118.125 150.75 L 123.75 150.75 L 123.75 156.375 C 123.75 159.480469 126.269531 162 129.375 162 C 132.480469 162 135 159.480469 135 156.375 L 135 150.75 L 140.625 150.75 C 143.730469 150.75 146.25 148.230469 146.25 145.125 C 146.25 142.019531 143.730469 139.5 140.625 139.5 Z M 140.625 139.5 "/>
<path style=" stroke:none;fill-rule:nonzero;fill:rgb(100%,84.705882%,27.058824%);fill-opacity:1;" d="M 28.125 11.25 L 22.5 11.25 L 22.5 5.625 C 22.5 2.519531 19.980469 0 16.875 0 C 13.769531 0 11.25 2.519531 11.25 5.625 L 11.25 11.25 L 5.625 11.25 C 2.519531 11.25 0 13.769531 0 16.875 C 0 19.980469 2.519531 22.5 5.625 22.5 L 11.25 22.5 L 11.25 28.125 C 11.25 31.230469 13.769531 33.75 16.875 33.75 C 19.980469 33.75 22.5 31.230469 22.5 28.125 L 22.5 22.5 L 28.125 22.5 C 31.230469 22.5 33.75 19.980469 33.75 16.875 C 33.75 13.769531 31.230469 11.25 28.125 11.25 Z M 60 51.375 C 60 54.480469 62.519531 57 65.625 57 C 68.730469 57 71.25 54.480469 71.25 51.375 L 71.25 45.75 L 76.875 45.75 C 79.980469 45.75 82.5 43.230469 82.5 40.125 C 82.5 37.019531 79.980469 34.5 76.875 34.5 L 71.25 34.5 L 71.25 28.875 C 71.25 25.769531 68.730469 23.25 65.625 23.25 C 62.519531 23.25 60 25.769531 60 28.875 L 60 34.5 L 54.375 34.5 C 51.269531 34.5 48.75 37.019531 48.75 40.125 C 48.75 43.230469 51.269531 45.75 54.375 45.75 L 60 45.75 Z M 60 51.375 "/>
<path style=" stroke:none;fill-rule:nonzero;fill:rgb(100%,84.705882%,27.058824%);fill-opacity:1;" d="M 106.875 12 C 106.875 15.105469 104.355469 17.625 101.25 17.625 C 98.144531 17.625 95.625 15.105469 95.625 12 C 95.625 8.894531 98.144531 6.375 101.25 6.375 C 104.355469 6.375 106.875 8.894531 106.875 12 Z M 106.875 12 "/>
<path style=" stroke:none;fill-rule:nonzero;fill:rgb(100%,84.705882%,27.058824%);fill-opacity:1;" d="M 31.875 68.25 C 31.875 71.355469 29.355469 73.875 26.25 73.875 C 23.144531 73.875 20.625 71.355469 20.625 68.25 C 20.625 65.144531 23.144531 62.625 26.25 62.625 C 29.355469 62.625 31.875 65.144531 31.875 68.25 Z M 31.875 68.25 "/>
<path style=" stroke:none;fill-rule:nonzero;fill:rgb(100%,70.588235%,32.941176%);fill-opacity:1;" d="M 163.125 180.75 C 163.125 183.855469 160.605469 186.375 157.5 186.375 C 154.394531 186.375 151.875 183.855469 151.875 180.75 C 151.875 177.644531 154.394531 175.125 157.5 175.125 C 160.605469 175.125 163.125 177.644531 163.125 180.75 Z M 163.125 180.75 "/>
<path style=" stroke:none;fill-rule:nonzero;fill:rgb(100%,70.588235%,32.941176%);fill-opacity:1;" d="M 185.625 105.75 C 185.625 108.855469 183.105469 111.375 180 111.375 C 176.894531 111.375 174.375 108.855469 174.375 105.75 C 174.375 102.644531 176.894531 100.125 180 100.125 C 183.105469 100.125 185.625 102.644531 185.625 105.75 Z M 185.625 105.75 "/>
<path style=" stroke:none;fill-rule:nonzero;fill:rgb(100%,84.705882%,27.058824%);fill-opacity:1;" d="M 27.421875 164.578125 L 34.714844 188.042969 C 35.351562 190.089844 37.09375 191.597656 39.207031 191.929688 C 41.324219 192.265625 43.445312 191.371094 44.679688 189.621094 L 58.871094 169.558594 L 83.441406 169.875 C 85.574219 169.894531 87.554688 168.710938 88.527344 166.800781 C 89.5 164.894531 89.304688 162.601562 88.023438 160.882812 L 73.324219 141.1875 L 81.21875 117.917969 C 81.90625 115.890625 81.382812 113.648438 79.867188 112.132812 Z M 27.421875 164.578125 "/>
<path style=" stroke:none;fill-rule:nonzero;fill:rgb(100%,70.588235%,32.941176%);fill-opacity:1;" d="M 155.367188 36.636719 C 156.464844 37.734375 157.902344 38.28125 159.34375 38.28125 C 160.78125 38.28125 162.222656 37.734375 163.320312 36.636719 L 190.351562 9.601562 C 192.550781 7.40625 192.550781 3.84375 190.351562 1.648438 Z M 101.007812 96.617188 C 102.5 96.621094 103.929688 96.027344 104.984375 94.972656 L 147.410156 52.542969 C 149.605469 50.347656 149.605469 46.785156 147.410156 44.589844 L 97.027344 94.972656 C 98.082031 96.027344 99.515625 96.621094 101.007812 96.617188 Z M 101.007812 96.617188 "/>
</g>
</svg>
