<svg id="Capa_1" enable-background="new 0 0 512 512" height="512" viewBox="0 0 512 512" width="512" xmlns="http://www.w3.org/2000/svg"><g><path d="m244.898 4.368 8.105 16.423c1.141 2.312 3.347 3.915 5.899 4.286l18.124 2.634c6.427.934 8.993 8.831 4.342 13.364l-13.115 12.784c-1.847 1.8-2.689 4.393-2.253 6.935l3.096 18.051c1.098 6.401-5.62 11.282-11.368 8.26l-16.211-8.522c-2.283-1.2-5.009-1.2-7.292 0l-16.211 8.522c-5.748 3.022-12.466-1.859-11.368-8.26l3.096-18.051c.436-2.542-.407-5.135-2.253-6.935l-13.115-12.784c-4.65-4.533-2.084-12.43 4.342-13.364l18.124-2.634c2.552-.371 4.758-1.974 5.899-4.286l8.105-16.423c2.876-5.824 11.18-5.824 14.054 0z" fill="#fed402"/><path d="m227.251 78.844 3.096-18.051c.436-2.542-.407-5.135-2.253-6.935l-13.115-12.784c-4.65-4.533-2.084-12.43 4.342-13.364l18.124-2.634c2.552-.371 4.758-1.974 5.899-4.286l4.829-9.786-3.276-6.638c-2.874-5.823-11.178-5.823-14.052 0l-8.105 16.423c-1.141 2.313-3.347 3.915-5.899 4.286l-18.124 2.634c-6.426.934-8.993 8.831-4.342 13.364l13.115 12.784c1.847 1.8 2.689 4.393 2.253 6.935l-3.096 18.051c-1.098 6.4 5.62 11.282 11.368 8.26l9.372-4.927c-.272-1.033-.338-2.156-.136-3.332z" fill="#fac600"/><path d="m441.154 136.357 8.105 16.423c1.141 2.312 3.347 3.915 5.899 4.286l18.124 2.634c6.427.934 8.993 8.831 4.342 13.364l-13.115 12.784c-1.847 1.8-2.689 4.393-2.253 6.935l3.096 18.051c1.098 6.401-5.62 11.282-11.368 8.26l-16.211-8.522c-2.283-1.2-5.009-1.2-7.292 0l-16.211 8.522c-5.748 3.022-12.466-1.859-11.368-8.26l3.096-18.051c.436-2.542-.407-5.135-2.253-6.935l-13.115-12.784c-4.65-4.533-2.084-12.43 4.342-13.364l18.124-2.634c2.552-.371 4.758-1.974 5.899-4.286l8.105-16.423c2.876-5.823 11.18-5.823 14.054 0z" fill="#fed402"/><path d="m423.507 210.834 3.096-18.051c.436-2.542-.407-5.135-2.253-6.935l-13.115-12.784c-4.65-4.533-2.084-12.431 4.342-13.364l18.124-2.634c2.552-.371 4.758-1.974 5.899-4.286l4.83-9.786-3.276-6.638c-2.874-5.823-11.178-5.823-14.052 0l-8.105 16.423c-1.141 2.312-3.347 3.915-5.899 4.286l-18.124 2.634c-6.426.934-8.993 8.831-4.342 13.364l13.115 12.784c1.847 1.8 2.689 4.393 2.253 6.935l-3.096 18.051c-1.098 6.401 5.62 11.282 11.368 8.26l9.372-4.927c-.272-1.034-.338-2.157-.137-3.332z" fill="#fac600"/><path d="m308.898 236.919 8.105 16.423c1.141 2.312 3.347 3.915 5.899 4.286l18.124 2.634c6.427.934 8.993 8.831 4.342 13.364l-13.115 12.784c-1.847 1.8-2.689 4.393-2.253 6.935l3.096 18.051c1.098 6.401-5.62 11.282-11.368 8.26l-16.211-8.522c-2.283-1.2-5.009-1.2-7.292 0l-16.211 8.522c-5.748 3.022-12.466-1.859-11.368-8.26l3.096-18.051c.436-2.542-.407-5.135-2.253-6.935l-13.115-12.784c-4.65-4.533-2.084-12.43 4.342-13.364l18.124-2.634c2.552-.371 4.758-1.974 5.899-4.286l8.105-16.423c2.876-5.823 11.18-5.823 14.054 0z" fill="#fed402"/><path d="m291.251 311.396 3.096-18.051c.436-2.542-.407-5.135-2.253-6.935l-13.115-12.784c-4.65-4.533-2.084-12.431 4.342-13.364l18.124-2.634c2.552-.371 4.758-1.974 5.899-4.286l4.829-9.786-3.276-6.638c-2.874-5.823-11.178-5.823-14.052 0l-8.105 16.423c-1.141 2.312-3.347 3.915-5.899 4.286l-18.124 2.634c-6.426.934-8.993 8.831-4.342 13.364l13.115 12.784c1.847 1.8 2.689 4.393 2.253 6.935l-3.096 18.051c-1.098 6.4 5.62 11.282 11.368 8.259l9.372-4.927c-.272-1.032-.338-2.155-.136-3.331z" fill="#fac600"/><path d="m336.002 416c-114.813.001-208.003-93.189-208.002-208.002 0-16.702 1.971-32.942 5.691-48.504 3.57-14.933-13.874-25.959-25.732-16.206-46.379 38.146-75.958 95.972-75.959 160.71-.001 114.749 93.253 208.003 208.002 208.002 64.739 0 122.564-29.58 160.71-75.959 9.753-11.858-1.273-29.301-16.206-25.732-15.562 3.72-31.803 5.691-48.504 5.691z" fill="#fed402"/><g fill="#fac600"><path d="m52.604 303.998c.001-64.657 29.514-122.419 75.792-160.566-5.474-4.558-13.825-5.582-20.437-.144-46.379 38.146-75.958 95.971-75.959 160.71-.001 114.749 93.253 208.003 208.002 208.002 3.404 0 6.784-.1 10.148-.262-109.904-5.459-197.547-96.498-197.546-207.74z"/><circle cx="160" cy="416" r="32"/><circle cx="88" cy="312" r="24"/><circle cx="112" cy="208" r="16.062"/><circle cx="336.062" cy="432" r="16.062"/><circle cx="240" cy="464" r="16.062"/></g><path d="m415.716 39.649h-8.179v-8.178c0-4.268-3.459-7.726-7.726-7.726s-7.726 3.459-7.726 7.726v8.178h-8.178c-4.268 0-7.726 3.459-7.726 7.726s3.459 7.726 7.726 7.726h8.178v8.179c0 4.268 3.459 7.726 7.726 7.726s7.726-3.459 7.726-7.726v-8.179h8.179c4.268 0 7.726-3.459 7.726-7.726s-3.459-7.726-7.726-7.726z" fill="#fed402"/><path d="m335.905 120.244h-8.179v-8.178c0-4.268-3.459-7.726-7.726-7.726-4.268 0-7.726 3.459-7.726 7.726v8.178h-8.178c-4.268 0-7.726 3.459-7.726 7.726 0 4.268 3.459 7.726 7.726 7.726h8.178v8.179c0 4.268 3.459 7.726 7.726 7.726 4.268 0 7.726-3.459 7.726-7.726v-8.179h8.179c4.268 0 7.726-3.459 7.726-7.726s-3.458-7.726-7.726-7.726z" fill="#fed402"/><path d="m223.905 168.274h-8.179v-8.179c0-4.268-3.459-7.726-7.726-7.726s-7.726 3.459-7.726 7.726v8.179h-8.179c-4.267 0-7.726 3.459-7.726 7.726s3.459 7.726 7.726 7.726h8.179v8.178c0 4.268 3.459 7.726 7.726 7.726s7.726-3.459 7.726-7.726v-8.178h8.179c4.267 0 7.726-3.459 7.726-7.726s-3.459-7.726-7.726-7.726z" fill="#fed402"/><path d="m447.905 311.531h-8.178v-8.179c0-4.268-3.459-7.726-7.726-7.726s-7.726 3.459-7.726 7.726v8.179h-8.179c-4.268 0-7.726 3.459-7.726 7.726s3.459 7.726 7.726 7.726h8.179v8.178c0 4.268 3.459 7.726 7.726 7.726s7.726-3.459 7.726-7.726v-8.178h8.178c4.268 0 7.726-3.459 7.726-7.726s-3.458-7.726-7.726-7.726z" fill="#fed402"/></g></svg>