<svg height="512" viewBox="0 0 176 176" width="512" xmlns="http://www.w3.org/2000/svg"><g id="Layer_2" data-name="Layer 2"><g id="_39.rss" data-name="39.rss"><circle id="background" cx="88" cy="88" fill="#f78422" r="88"/><path id="icon" d="m61.93 115a14.45 14.45 0 0 1 0 20.56 14.57 14.57 0 1 1 -20.64-20.56 14.58 14.58 0 0 1 20.64 0zm-24.93-47.6v21a51.55 51.55 0 0 1 51.49 51.6h21.1a72.74 72.74 0 0 0 -72.59-72.6zm0-37.4v21a89.1 89.1 0 0 1 88.89 89h21.11a110.16 110.16 0 0 0 -109.95-110z" fill="#fff"/></g></g></svg>