<svg xmlns="http://www.w3.org/2000/svg" viewBox="0 0 459 459"><path fill="#eb531f" d="M229.5 0C102.75 0 0 102.75 0 229.5S102.75 459 229.5 459 459 356.25 459 229.5 356.25 0 229.5 0Zm-99.29 191.45a39.57 39.57 0 1 1 39.56-39.57 39.58 39.58 0 0 1-39.56 39.57ZM229.5 390a39.56 39.56 0 1 1 39.56-39.56A39.56 39.56 0 0 1 229.5 390Zm0-99.29a39.56 39.56 0 1 1 39.56-39.56 39.56 39.56 0 0 1-39.56 39.59Zm0-99.29a39.57 39.57 0 1 1 39.56-39.57 39.57 39.57 0 0 1-39.56 39.6Zm99.29 0a39.57 39.57 0 1 1 39.57-39.57 39.57 39.57 0 0 1-39.57 39.6Z"/></svg>